<svg viewBox="0 0 800 280" xmlns="http://www.w3.org/2000/svg" fill="none">
  <!-- Your App -->
  <rect x="20" y="90" width="160" height="100" rx="12" fill="#161b22" stroke="#30363d" stroke-width="1.5"/>
  <text x="100" y="125" text-anchor="middle" fill="#c9d1d9" font-family="system-ui" font-size="13" font-weight="600">Your Application</text>
  <text x="100" y="150" text-anchor="middle" fill="#8b949e" font-family="system-ui" font-size="10">TS · Python · Go · .NET · Java</text>
  <rect x="50" y="160" width="100" height="22" rx="4" fill="#1f6feb" opacity="0.2"/>
  <text x="100" y="175" text-anchor="middle" fill="#58a6ff" font-family="system-ui" font-size="9" font-weight="600">SDK Client</text>

  <!-- Arrow 1 -->
  <line x1="180" y1="140" x2="240" y2="140" stroke="#58a6ff" stroke-width="2" stroke-dasharray="6,3"/>
  <polygon points="240,134 252,140 240,146" fill="#58a6ff"/>
  <text x="216" y="132" text-anchor="middle" fill="#8b949e" font-family="system-ui" font-size="9">JSON-RPC</text>

  <!-- Copilot CLI -->
  <rect x="260" y="60" width="180" height="160" rx="12" fill="#161b22" stroke="#3fb950" stroke-width="1.5"/>
  <text x="350" y="90" text-anchor="middle" fill="#3fb950" font-family="system-ui" font-size="13" font-weight="600">Copilot CLI</text>
  <rect x="280" y="100" width="140" height="24" rx="4" fill="#0d1117" stroke="#30363d"/>
  <text x="350" y="116" text-anchor="middle" fill="#c9d1d9" font-family="system-ui" font-size="9">Session Manager</text>
  <rect x="280" y="132" width="140" height="24" rx="4" fill="#0d1117" stroke="#30363d"/>
  <text x="350" y="148" text-anchor="middle" fill="#c9d1d9" font-family="system-ui" font-size="9">Tool Runtime</text>
  <rect x="280" y="164" width="140" height="24" rx="4" fill="#0d1117" stroke="#30363d"/>
  <text x="350" y="180" text-anchor="middle" fill="#c9d1d9" font-family="system-ui" font-size="9">Auth & Planning</text>

  <!-- Arrow 2 -->
  <line x1="440" y1="140" x2="500" y2="140" stroke="#58a6ff" stroke-width="2" stroke-dasharray="6,3"/>
  <polygon points="500,134 512,140 500,146" fill="#58a6ff"/>

  <!-- Model Provider -->
  <rect x="520" y="70" width="260" height="140" rx="12" fill="#161b22" stroke="#58a6ff" stroke-width="1.5"/>
  <text x="650" y="100" text-anchor="middle" fill="#58a6ff" font-family="system-ui" font-size="13" font-weight="600">Model Provider</text>
  <!-- Provider pills -->
  <rect x="538" y="115" width="70" height="22" rx="11" fill="#0d1117" stroke="#3fb950" stroke-width="1"/>
  <text x="573" y="130" text-anchor="middle" fill="#3fb950" font-family="system-ui" font-size="9">Copilot</text>
  <rect x="616" y="115" width="60" height="22" rx="11" fill="#0d1117" stroke="#58a6ff" stroke-width="1"/>
  <text x="646" y="130" text-anchor="middle" fill="#58a6ff" font-family="system-ui" font-size="9">OpenAI</text>
  <rect x="684" y="115" width="55" height="22" rx="11" fill="#0d1117" stroke="#bc8cff" stroke-width="1"/>
  <text x="712" y="130" text-anchor="middle" fill="#bc8cff" font-family="system-ui" font-size="9">Azure</text>
  <rect x="555" y="148" width="75" height="22" rx="11" fill="#0d1117" stroke="#f0883e" stroke-width="1"/>
  <text x="593" y="163" text-anchor="middle" fill="#f0883e" font-family="system-ui" font-size="9">Anthropic</text>
  <rect x="640" y="148" width="55" height="22" rx="11" fill="#0d1117" stroke="#39d2c0" stroke-width="1"/>
  <text x="668" y="163" text-anchor="middle" fill="#39d2c0" font-family="system-ui" font-size="9">Local</text>
  <rect x="703" y="148" width="60" height="22" rx="11" fill="#0d1117" stroke="#f0883e" stroke-width="1"/>
  <text x="733" y="163" text-anchor="middle" fill="#f0883e" font-family="system-ui" font-size="9">BYOK</text>

  <!-- MCP arrow down from CLI -->
  <line x1="350" y1="220" x2="350" y2="250" stroke="#bc8cff" stroke-width="1.5" stroke-dasharray="4,3"/>
  <text x="350" y="270" text-anchor="middle" fill="#bc8cff" font-family="system-ui" font-size="9">+ MCP Servers · Custom Tools · Skills</text>
</svg>
