<svg width="18.6mm" height="18.6mm" version="1.1" viewBox="0 0 18.6 18.6" fill_color="#58a6ff" back_color="#0d1117" xmlns="http://www.w3.org/2000/svg"><path d="M0.6,0.6H1.2V1.2H0.6zM1.2,0.6H1.8V1.2H1.2zM1.8,0.6H2.4V1.2H1.8zM2.4,0.6H3V1.2H2.4zM3,0.6H3.6V1.2H3zM3.6,0.6H4.2V1.2H3.6zM4.2,0.6H4.8V1.2H4.2zM5.4,0.6H6V1.2H5.4zM7.2,0.6H7.8V1.2H7.2zM7.8,0.6H8.4V1.2H7.8zM8.4,0.6H9V1.2H8.4zM9,0.6H9.6V1.2H9zM10.8,0.6H11.4V1.2H10.8zM11.4,0.6H12V1.2H11.4zM13.8,0.6H14.4V1.2H13.8zM14.4,0.6H15V1.2H14.4zM15,0.6H15.6V1.2H15zM15.6,0.6H16.2V1.2H15.6zM16.2,0.6H16.8V1.2H16.2zM16.8,0.6H17.4V1.2H16.8zM17.4,0.6H18V1.2H17.4zM0.6,1.2H1.2V1.8H0.6zM4.2,1.2H4.8V1.8H4.2zM6,1.2H6.6V1.8H6zM6.6,1.2H7.2V1.8H6.6zM10.2,1.2H10.8V1.8H10.2zM10.8,1.2H11.4V1.8H10.8zM12,1.2H12.6V1.8H12zM12.6,1.2H13.2V1.8H12.6zM13.8,1.2H14.4V1.8H13.8zM17.4,1.2H18V1.8H17.4zM0.6,1.8H1.2V2.4H0.6zM1.8,1.8H2.4V2.4H1.8zM2.4,1.8H3V2.4H2.4zM3,1.8H3.6V2.4H3zM4.2,1.8H4.8V2.4H4.2zM6.6,1.8H7.2V2.4H6.6zM7.8,1.8H8.4V2.4H7.8zM8.4,1.8H9V2.4H8.4zM9,1.8H9.6V2.4H9zM11.4,1.8H12V2.4H11.4zM12.6,1.8H13.2V2.4H12.6zM13.8,1.8H14.4V2.4H13.8zM15,1.8H15.6V2.4H15zM15.6,1.8H16.2V2.4H15.6zM16.2,1.8H16.8V2.4H16.2zM17.4,1.8H18V2.4H17.4zM0.6,2.4H1.2V3H0.6zM1.8,2.4H2.4V3H1.8zM2.4,2.4H3V3H2.4zM3,2.4H3.6V3H3zM4.2,2.4H4.8V3H4.2zM7.8,2.4H8.4V3H7.8zM8.4,2.4H9V3H8.4zM9.6,2.4H10.2V3H9.6zM10.2,2.4H10.8V3H10.2zM10.8,2.4H11.4V3H10.8zM12.6,2.4H13.2V3H12.6zM13.8,2.4H14.4V3H13.8zM15,2.4H15.6V3H15zM15.6,2.4H16.2V3H15.6zM16.2,2.4H16.8V3H16.2zM17.4,2.4H18V3H17.4zM0.6,3H1.2V3.6H0.6zM1.8,3H2.4V3.6H1.8zM2.4,3H3V3.6H2.4zM3,3H3.6V3.6H3zM4.2,3H4.8V3.6H4.2zM6,3H6.6V3.6H6zM7.2,3H7.8V3.6H7.2zM8.4,3H9V3.6H8.4zM9,3H9.6V3.6H9zM10.8,3H11.4V3.6H10.8zM12,3H12.6V3.6H12zM13.8,3H14.4V3.6H13.8zM15,3H15.6V3.6H15zM15.6,3H16.2V3.6H15.6zM16.2,3H16.8V3.6H16.2zM17.4,3H18V3.6H17.4zM0.6,3.6H1.2V4.2H0.6zM4.2,3.6H4.8V4.2H4.2zM6.6,3.6H7.2V4.2H6.6zM7.8,3.6H8.4V4.2H7.8zM11.4,3.6H12V4.2H11.4zM12.6,3.6H13.2V4.2H12.6zM13.8,3.6H14.4V4.2H13.8zM17.4,3.6H18V4.2H17.4zM0.6,4.2H1.2V4.8H0.6zM1.2,4.2H1.8V4.8H1.2zM1.8,4.2H2.4V4.8H1.8zM2.4,4.2H3V4.8H2.4zM3,4.2H3.6V4.8H3zM3.6,4.2H4.2V4.8H3.6zM4.2,4.2H4.8V4.8H4.2zM5.4,4.2H6V4.8H5.4zM6.6,4.2H7.2V4.8H6.6zM7.8,4.2H8.4V4.8H7.8zM9,4.2H9.6V4.8H9zM10.2,4.2H10.8V4.8H10.2zM11.4,4.2H12V4.8H11.4zM12.6,4.2H13.2V4.8H12.6zM13.8,4.2H14.4V4.8H13.8zM14.4,4.2H15V4.8H14.4zM15,4.2H15.6V4.8H15zM15.6,4.2H16.2V4.8H15.6zM16.2,4.2H16.8V4.8H16.2zM16.8,4.2H17.4V4.8H16.8zM17.4,4.2H18V4.8H17.4zM5.4,4.8H6V5.4H5.4zM6.6,4.8H7.2V5.4H6.6zM7.2,4.8H7.8V5.4H7.2zM8.4,4.8H9V5.4H8.4zM9,4.8H9.6V5.4H9zM9.6,4.8H10.2V5.4H9.6zM10.2,4.8H10.8V5.4H10.2zM11.4,4.8H12V5.4H11.4zM12,4.8H12.6V5.4H12zM0.6,5.4H1.2V6H0.6zM1.2,5.4H1.8V6H1.2zM2.4,5.4H3V6H2.4zM3,5.4H3.6V6H3zM4.2,5.4H4.8V6H4.2zM6,5.4H6.6V6H6zM6.6,5.4H7.2V6H6.6zM7.2,5.4H7.8V6H7.2zM9,5.4H9.6V6H9zM9.6,5.4H10.2V6H9.6zM10.2,5.4H10.8V6H10.2zM10.8,5.4H11.4V6H10.8zM12,5.4H12.6V6H12zM13.8,5.4H14.4V6H13.8zM17.4,5.4H18V6H17.4zM1.2,6H1.8V6.6H1.2zM1.8,6H2.4V6.6H1.8zM2.4,6H3V6.6H2.4zM3,6H3.6V6.6H3zM3.6,6H4.2V6.6H3.6zM4.8,6H5.4V6.6H4.8zM6,6H6.6V6.6H6zM7.8,6H8.4V6.6H7.8zM9,6H9.6V6.6H9zM9.6,6H10.2V6.6H9.6zM11.4,6H12V6.6H11.4zM12,6H12.6V6.6H12zM13.2,6H13.8V6.6H13.2zM14.4,6H15V6.6H14.4zM15,6H15.6V6.6H15zM16.2,6H16.8V6.6H16.2zM16.8,6H17.4V6.6H16.8zM0.6,6.6H1.2V7.2H0.6zM2.4,6.6H3V7.2H2.4zM4.2,6.6H4.8V7.2H4.2zM4.8,6.6H5.4V7.2H4.8zM5.4,6.6H6V7.2H5.4zM6.6,6.6H7.2V7.2H6.6zM7.2,6.6H7.8V7.2H7.2zM8.4,6.6H9V7.2H8.4zM9,6.6H9.6V7.2H9zM9.6,6.6H10.2V7.2H9.6zM10.8,6.6H11.4V7.2H10.8zM12.6,6.6H13.2V7.2H12.6zM14.4,6.6H15V7.2H14.4zM15,6.6H15.6V7.2H15zM16.2,6.6H16.8V7.2H16.2zM0.6,7.2H1.2V7.8H0.6zM1.8,7.2H2.4V7.8H1.8zM2.4,7.2H3V7.8H2.4zM6,7.2H6.6V7.8H6zM6.6,7.2H7.2V7.8H6.6zM7.2,7.2H7.8V7.8H7.2zM7.8,7.2H8.4V7.8H7.8zM9,7.2H9.6V7.8H9zM9.6,7.2H10.2V7.8H9.6zM10.2,7.2H10.8V7.8H10.2zM10.8,7.2H11.4V7.8H10.8zM12,7.2H12.6V7.8H12zM13.2,7.2H13.8V7.8H13.2zM13.8,7.2H14.4V7.8H13.8zM14.4,7.2H15V7.8H14.4zM15.6,7.2H16.2V7.8H15.6zM17.4,7.2H18V7.8H17.4zM0.6,7.8H1.2V8.4H0.6zM1.8,7.8H2.4V8.4H1.8zM3.6,7.8H4.2V8.4H3.6zM4.2,7.8H4.8V8.4H4.2zM5.4,7.8H6V8.4H5.4zM6,7.8H6.6V8.4H6zM7.2,7.8H7.8V8.4H7.2zM7.8,7.8H8.4V8.4H7.8zM9.6,7.8H10.2V8.4H9.6zM12.6,7.8H13.2V8.4H12.6zM13.8,7.8H14.4V8.4H13.8zM14.4,7.8H15V8.4H14.4zM17.4,7.8H18V8.4H17.4zM1.8,8.4H2.4V9H1.8zM3,8.4H3.6V9H3zM3.6,8.4H4.2V9H3.6zM4.8,8.4H5.4V9H4.8zM5.4,8.4H6V9H5.4zM6,8.4H6.6V9H6zM8.4,8.4H9V9H8.4zM9.6,8.4H10.2V9H9.6zM10.2,8.4H10.8V9H10.2zM10.8,8.4H11.4V9H10.8zM13.8,8.4H14.4V9H13.8zM14.4,8.4H15V9H14.4zM15,8.4H15.6V9H15zM15.6,8.4H16.2V9H15.6zM16.2,8.4H16.8V9H16.2zM16.8,8.4H17.4V9H16.8zM17.4,8.4H18V9H17.4zM0.6,9H1.2V9.6H0.6zM1.2,9H1.8V9.6H1.2zM1.8,9H2.4V9.6H1.8zM4.2,9H4.8V9.6H4.2zM7.2,9H7.8V9.6H7.2zM7.8,9H8.4V9.6H7.8zM8.4,9H9V9.6H8.4zM9.6,9H10.2V9.6H9.6zM11.4,9H12V9.6H11.4zM12,9H12.6V9.6H12zM12.6,9H13.2V9.6H12.6zM13.2,9H13.8V9.6H13.2zM13.8,9H14.4V9.6H13.8zM15,9H15.6V9.6H15zM16.2,9H16.8V9.6H16.2zM17.4,9H18V9.6H17.4zM4.8,9.6H5.4V10.2H4.8zM5.4,9.6H6V10.2H5.4zM7.2,9.6H7.8V10.2H7.2zM9,9.6H9.6V10.2H9zM12,9.6H12.6V10.2H12zM14.4,9.6H15V10.2H14.4zM15,9.6H15.6V10.2H15zM16.2,9.6H16.8V10.2H16.2zM17.4,9.6H18V10.2H17.4zM1.2,10.2H1.8V10.8H1.2zM1.8,10.2H2.4V10.8H1.8zM2.4,10.2H3V10.8H2.4zM3.6,10.2H4.2V10.8H3.6zM4.2,10.2H4.8V10.8H4.2zM5.4,10.2H6V10.8H5.4zM6.6,10.2H7.2V10.8H6.6zM9.6,10.2H10.2V10.8H9.6zM12,10.2H12.6V10.8H12zM12.6,10.2H13.2V10.8H12.6zM13.2,10.2H13.8V10.8H13.2zM15.6,10.2H16.2V10.8H15.6zM0.6,10.8H1.2V11.4H0.6zM2.4,10.8H3V11.4H2.4zM5.4,10.8H6V11.4H5.4zM6,10.8H6.6V11.4H6zM7.2,10.8H7.8V11.4H7.2zM7.8,10.8H8.4V11.4H7.8zM8.4,10.8H9V11.4H8.4zM9,10.8H9.6V11.4H9zM9.6,10.8H10.2V11.4H9.6zM10.8,10.8H11.4V11.4H10.8zM11.4,10.8H12V11.4H11.4zM12,10.8H12.6V11.4H12zM15,10.8H15.6V11.4H15zM16.2,10.8H16.8V11.4H16.2zM16.8,10.8H17.4V11.4H16.8zM0.6,11.4H1.2V12H0.6zM1.2,11.4H1.8V12H1.2zM4.2,11.4H4.8V12H4.2zM4.8,11.4H5.4V12H4.8zM5.4,11.4H6V12H5.4zM6,11.4H6.6V12H6zM6.6,11.4H7.2V12H6.6zM7.2,11.4H7.8V12H7.2zM9.6,11.4H10.2V12H9.6zM10.2,11.4H10.8V12H10.2zM12,11.4H12.6V12H12zM15,11.4H15.6V12H15zM15.6,11.4H16.2V12H15.6zM17.4,11.4H18V12H17.4zM0.6,12H1.2V12.6H0.6zM1.2,12H1.8V12.6H1.2zM1.8,12H2.4V12.6H1.8zM2.4,12H3V12.6H2.4zM3,12H3.6V12.6H3zM3.6,12H4.2V12.6H3.6zM4.8,12H5.4V12.6H4.8zM6,12H6.6V12.6H6zM7.8,12H8.4V12.6H7.8zM8.4,12H9V12.6H8.4zM9.6,12H10.2V12.6H9.6zM12,12H12.6V12.6H12zM13.8,12H14.4V12.6H13.8zM15.6,12H16.2V12.6H15.6zM16.2,12H16.8V12.6H16.2zM0.6,12.6H1.2V13.2H0.6zM1.2,12.6H1.8V13.2H1.2zM1.8,12.6H2.4V13.2H1.8zM4.2,12.6H4.8V13.2H4.2zM5.4,12.6H6V13.2H5.4zM7.8,12.6H8.4V13.2H7.8zM9,12.6H9.6V13.2H9zM9.6,12.6H10.2V13.2H9.6zM10.2,12.6H10.8V13.2H10.2zM10.8,12.6H11.4V13.2H10.8zM12.6,12.6H13.2V13.2H12.6zM13.2,12.6H13.8V13.2H13.2zM13.8,12.6H14.4V13.2H13.8zM14.4,12.6H15V13.2H14.4zM15,12.6H15.6V13.2H15zM15.6,12.6H16.2V13.2H15.6zM16.2,12.6H16.8V13.2H16.2zM16.8,12.6H17.4V13.2H16.8zM5.4,13.2H6V13.8H5.4zM6,13.2H6.6V13.8H6zM9.6,13.2H10.2V13.8H9.6zM12.6,13.2H13.2V13.8H12.6zM15,13.2H15.6V13.8H15zM15.6,13.2H16.2V13.8H15.6zM0.6,13.8H1.2V14.4H0.6zM1.2,13.8H1.8V14.4H1.2zM1.8,13.8H2.4V14.4H1.8zM2.4,13.8H3V14.4H2.4zM3,13.8H3.6V14.4H3zM3.6,13.8H4.2V14.4H3.6zM4.2,13.8H4.8V14.4H4.2zM6,13.8H6.6V14.4H6zM7.8,13.8H8.4V14.4H7.8zM8.4,13.8H9V14.4H8.4zM9,13.8H9.6V14.4H9zM9.6,13.8H10.2V14.4H9.6zM10.2,13.8H10.8V14.4H10.2zM11.4,13.8H12V14.4H11.4zM12,13.8H12.6V14.4H12zM12.6,13.8H13.2V14.4H12.6zM13.8,13.8H14.4V14.4H13.8zM15,13.8H15.6V14.4H15zM15.6,13.8H16.2V14.4H15.6zM0.6,14.4H1.2V15H0.6zM4.2,14.4H4.8V15H4.2zM6,14.4H6.6V15H6zM6.6,14.4H7.2V15H6.6zM9,14.4H9.6V15H9zM10.8,14.4H11.4V15H10.8zM11.4,14.4H12V15H11.4zM12,14.4H12.6V15H12zM12.6,14.4H13.2V15H12.6zM15,14.4H15.6V15H15zM17.4,14.4H18V15H17.4zM0.6,15H1.2V15.6H0.6zM1.8,15H2.4V15.6H1.8zM2.4,15H3V15.6H2.4zM3,15H3.6V15.6H3zM4.2,15H4.8V15.6H4.2zM5.4,15H6V15.6H5.4zM6,15H6.6V15.6H6zM6.6,15H7.2V15.6H6.6zM7.8,15H8.4V15.6H7.8zM9.6,15H10.2V15.6H9.6zM10.2,15H10.8V15.6H10.2zM12,15H12.6V15.6H12zM12.6,15H13.2V15.6H12.6zM13.2,15H13.8V15.6H13.2zM13.8,15H14.4V15.6H13.8zM14.4,15H15V15.6H14.4zM15,15H15.6V15.6H15zM15.6,15H16.2V15.6H15.6zM0.6,15.6H1.2V16.2H0.6zM1.8,15.6H2.4V16.2H1.8zM2.4,15.6H3V16.2H2.4zM3,15.6H3.6V16.2H3zM4.2,15.6H4.8V16.2H4.2zM5.4,15.6H6V16.2H5.4zM7.8,15.6H8.4V16.2H7.8zM8.4,15.6H9V16.2H8.4zM9,15.6H9.6V16.2H9zM9.6,15.6H10.2V16.2H9.6zM10.2,15.6H10.8V16.2H10.2zM10.8,15.6H11.4V16.2H10.8zM11.4,15.6H12V16.2H11.4zM13.2,15.6H13.8V16.2H13.2zM17.4,15.6H18V16.2H17.4zM0.6,16.2H1.2V16.8H0.6zM1.8,16.2H2.4V16.8H1.8zM2.4,16.2H3V16.8H2.4zM3,16.2H3.6V16.8H3zM4.2,16.2H4.8V16.8H4.2zM6,16.2H6.6V16.8H6zM6.6,16.2H7.2V16.8H6.6zM8.4,16.2H9V16.8H8.4zM9,16.2H9.6V16.8H9zM9.6,16.2H10.2V16.8H9.6zM10.2,16.2H10.8V16.8H10.2zM10.8,16.2H11.4V16.8H10.8zM12.6,16.2H13.2V16.8H12.6zM13.2,16.2H13.8V16.8H13.2zM14.4,16.2H15V16.8H14.4zM15,16.2H15.6V16.8H15zM16.2,16.2H16.8V16.8H16.2zM16.8,16.2H17.4V16.8H16.8zM17.4,16.2H18V16.8H17.4zM0.6,16.8H1.2V17.4H0.6zM4.2,16.8H4.8V17.4H4.2zM5.4,16.8H6V17.4H5.4zM7.2,16.8H7.8V17.4H7.2zM7.8,16.8H8.4V17.4H7.8zM9,16.8H9.6V17.4H9zM9.6,16.8H10.2V17.4H9.6zM13.8,16.8H14.4V17.4H13.8zM14.4,16.8H15V17.4H14.4zM15.6,16.8H16.2V17.4H15.6zM16.2,16.8H16.8V17.4H16.2zM17.4,16.8H18V17.4H17.4zM0.6,17.4H1.2V18H0.6zM1.2,17.4H1.8V18H1.2zM1.8,17.4H2.4V18H1.8zM2.4,17.4H3V18H2.4zM3,17.4H3.6V18H3zM3.6,17.4H4.2V18H3.6zM4.2,17.4H4.8V18H4.2zM5.4,17.4H6V18H5.4zM6,17.4H6.6V18H6zM6.6,17.4H7.2V18H6.6zM7.8,17.4H8.4V18H7.8zM8.4,17.4H9V18H8.4zM12,17.4H12.6V18H12zM12.6,17.4H13.2V18H12.6zM13.8,17.4H14.4V18H13.8zM15,17.4H15.6V18H15z" id="qr-path" fill="#000000" fill-opacity="1" fill-rule="nonzero" stroke="none"/></svg>